<?xml version="1.0" encoding="utf-8"?>
<!-- Generator: Adobe Illustrator 24.3.0, SVG Export Plug-In . SVG Version: 6.00 Build 0)  -->
<svg version="1.1" id="Layer_2" xmlns="http://www.w3.org/2000/svg" xmlns:xlink="http://www.w3.org/1999/xlink" x="0px" y="0px"
	 viewBox="0 0 720 180" style="enable-background:new 0 0 720 180;" xml:space="preserve">
<style type="text/css">
	.st0{fill:#FFFFFF;stroke:#1CA3FD;stroke-width:2;stroke-miterlimit:10;}
	.st1{fill:#1CA3FD;}
</style>
<g>
	<path class="st0" d="M149,148.2c0,0-9,9.6-11.8,21.8"/>
	<path class="st0" d="M150.1,148.6c0,0,9,9.6,11.8,21.8"/>
	<path class="st1" d="M254.4,33.5l-105.2-24l-105.2,24c-3.3,0.8-3,9.7-0.1,10.5l37.4,8.4l0.1,28.1c0,1.5,0.5,3,1.5,4.2
		c1,1.3,2.1,2.4,3.1,3.4c12.5,12,50.5,10.8,50.5,10.8h12.8H162c0,0,38,1.2,50.5-10.8c1-1,2.1-2.1,3.1-3.4c1-1.2,1.4-2.7,1.5-4.2
		l0.1-28.1l18-4v38.9c-4.3,1.7-7.5,7.5-7.5,14.5v7.8l-77.4,8.8l-91.2-10.4c-1.6-0.2-3.2,0.7-3.9,2.1c-2.3,4.4-5.3,12.1-5.3,21.9
		c0.1,9.7,3.1,17.2,5.4,21.5c0.7,1.3,2.1,2.1,3.6,1.9l91.4-6.8l91.4,6.8c1.5,0.1,2.9-0.6,3.6-1.9c2.3-4.3,5.3-11.8,5.4-21.5
		c0-6.6-1.3-12.3-2.9-16.6v-13.7c0-7.3-3.5-13.4-8.2-14.7V47.3l15-3.4C257.3,43.2,257.6,34.3,254.4,33.5z"/>
</g>
<g>
	<path class="st1" d="M337.5,74.5h11v6.9c0,2.4-0.7,4.7-2.1,6.6c-1.4,1.9-3.7,3.6-7.3,3.6c-5.9,0-17.4,0-23,0
		c-3.1,0-6.1-0.8-8.7-2.4c-2.2-1.4-4.3-3.4-4.3-6.1c0-6,0-31.5,0-31.5s-0.9-12.6,9.4-12.6c10.3,0,24.9,0,24.9,0
		c7,0,11.1,2.2,11.1,10l0,6.4l-11.4-0.1l-1.8-5L315,50.5l0.2,29.3l21.1-0.2L337.5,74.5z"/>
	<path class="st1" d="M407.2,79.6c0,0,0-18.6,0-29.4s-8.4-11.2-8.4-11.2H368c-10.5,0-10,10-10,10s0,16.8,0,30.6
		c0,13.8,14.3,12,14.3,12s9-0.1,21.3,0C405.9,91.8,407.2,79.6,407.2,79.6z M393.6,79.6h-21.3V49h21.3V79.6z"/>
	<path class="st1" d="M417.4,39.1l11.8,0v40.6h28.7v12l-31.6,0.1c0,0-8.9,0.4-8.9-12.1S417.4,39.1,417.4,39.1z"/>
	<path class="st1" d="M469.4,39l11.8,0v40.6h28.7v12l-31.6,0.1c0,0-8.9,0.4-8.9-12.1S469.4,39,469.4,39z"/>
	<path class="st1" d="M517.4,106h32.7v7.6h-23.9l0.1,7H548v8.9h-21.7v7.2h23.8v9.4l-25.4,0.1c0,0-7.3-2-7.3-8.2
		C517.4,131.8,517.4,106,517.4,106z"/>
	<path class="st1" d="M597.2,58.8v11.6l13.4,0v9.2l-23.4,0V49.2h22.5l2.2,4.5l11.8,0.1v-3.3c0,0-0.9-11.4-12.7-11.4
		c-11.8,0-23.8,0-23.8,0s-13.8-1.5-13.8,11.1s0,29.5,0,29.5s0,11.9,13.8,11.9s22.2,0.1,22.2,0.1s14.4,2,14.4-12s0-20.9,0-20.9
		L597.2,58.8z"/>
	<path class="st1" d="M633,39h42.8v10h-31.4l0.2,9.2h28.4v11.6h-28.4v9.4h31.2v12.3l-33.2,0.1c0,0-9.6-2.6-9.6-10.7S633,39,633,39z"
		/>
	<path class="st1" d="M446.3,136.7c0,0,0-14,0-22.1s-7.4-8.7-7.4-8.7h-21.7c-7.9,0-7.5,7.5-7.5,7.5s0,12.6,0,23
		c0,10.4,10.7,9,10.7,9s6.8-0.1,16,0C445.8,145.6,446.3,136.7,446.3,136.7z M436.5,136.5h-16v-23h16V136.5z"/>
	<path class="st1" d="M647.3,106l9.1,0v31.3h22.1v9.2l-24.3,0.1c0,0-6.8,0.3-6.8-9.3S647.3,106,647.3,106z"/>
	<path class="st1" d="M519.4,39h42.8v10h-31.4l0.2,9.2h28.4v11.6h-28.4v9.4h31.2v12.3L529,91.7c0,0-9.6-2.6-9.6-10.7
		S519.4,39,519.4,39z"/>
	<path class="st1" d="M403.2,106v7.5h-23.8v8.7h21.4v7.2h-21.4v16.2h-9.2v-33.9c0,0,0.2-5.7,8.3-5.7S403.2,106,403.2,106z"/>
	<polygon class="st1" points="474.1,106 474.1,145.5 483.7,145.5 483.7,124 497.9,145.5 507.2,145.5 507.2,106 498.1,106 
		498.1,127.5 483.2,106 	"/>
	<polygon class="st1" points="319.7,106 319.7,113.5 315.1,113.5 315.1,138.8 319.7,138.8 319.7,145.5 301.3,145.5 301.3,138.8 
		305.7,138.8 305.7,113.5 301.3,113.5 301.3,105.8 	"/>
	<polygon class="st1" points="326.7,106.3 326.7,145.8 336.3,145.8 336.3,124.3 350.6,145.8 359.8,145.8 359.8,106.3 350.7,106.3 
		350.7,127.8 335.8,106.3 	"/>
	<path class="st1" d="M583.5,106h-24.1v40.2h9.5l0.1-11.8c0,0,10.5,0.1,17.7,0c5.7-0.1,5.7-8.9,5.7-8.9s0-6.7,0-12.6
		c0-3-1.8-4.7-3.7-5.6C587.1,106.3,585.3,106,583.5,106z M583.4,124.7h-14.6v-11.3h14.6V124.7z"/>
	<path class="st1" d="M628.4,106c-7.9,0-18.8,0-18.8,0s-7.6,0.3-7.6,6.2v33.4h10v-11.2h15.3v11.2h10.3v-33.4
		C637.6,112.2,636.3,106,628.4,106z M627.3,124.7h-15.1v-11.3h15.1V124.7z"/>
</g>
</svg>
